# xmcd
#
# Track frame offsets:
#   150
#   18715
#   36157
#   54800
#
# Disc length: 965 seconds
#
# Revision: 11
# Processed by: cddbd v1.5.2PL0 Copyright (c) Steve Scherf et al.
# Submitted via: EasyCDDAExtractor 15.3.0.1
#
DISCID=2903c304
DTITLE=Natalie Imbruglia / Torn
DYEAR=1997
DGENRE=Pop
TTITLE0=Torn
TTITLE1=Sometimes
TTITLE2=Contradictions
TTITLE3=Diving in the deep end
EXTD=
EXTT0=
EXTT1=
EXTT2=
EXTT3=
PLAYORDER=
.
